<svg xmlns="http://www.w3.org/2000/svg" width="103.163" height="103.163" viewBox="0 0 103.163 103.163">
  <path id="Icon_feather-phone-call" data-name="Icon feather-phone-call" d="M65.108,20.613a23.914,23.914,0,0,1,18.91,18.874M65.108,1.5a43.046,43.046,0,0,1,38.06,37.939M98.38,77.57V91.9a9.567,9.567,0,0,1-10.437,9.557A94.859,94.859,0,0,1,46.629,86.792,93.266,93.266,0,0,1,17.9,58.122a94.445,94.445,0,0,1-14.7-41.428A9.564,9.564,0,0,1,12.734,6.278H27.1A9.569,9.569,0,0,1,36.671,14.5a61.256,61.256,0,0,0,3.351,13.427,9.543,9.543,0,0,1-2.154,10.082l-6.08,6.068a76.526,76.526,0,0,0,28.724,28.67l6.08-6.068a9.588,9.588,0,0,1,10.1-2.15A61.566,61.566,0,0,0,90.146,67.87,9.562,9.562,0,0,1,98.38,77.57Z" transform="translate(-1.663 0.156)" fill="none" stroke="#000" stroke-linecap="round" stroke-linejoin="round" stroke-width="3"/>
</svg>
